<svg width="500" height="445" viewBox="0 0 500 445" fill="none" xmlns="http://www.w3.org/2000/svg">
<path d="M474.903 157.742C480.278 152.589 485.083 146.7 489.056 139.964C512.472 100.325 479.972 15.0556 468 8.00001C458.347 2.29168 404.042 4.54765 366.306 33.4643C331.611 12.6726 292.097 0.394867 250 0.394867C208.042 0.394867 168.667 12.6032 134.042 33.2699C96.25 4.46432 40.6528 2.30556 31 8C19.0417 15.0556 -11.8333 100.339 11.5556 139.964C15.4167 146.506 20.0972 152.242 25.2917 157.312C9.25 192.756 0 231.506 0 270.937C0 409.673 111.264 444.839 250 444.839C388.736 444.839 500 409.673 500 270.937C500 231.659 490.833 193.075 474.903 157.742Z" fill="#FFB9C6"/>
<path d="M102.75 55.4644C72.6667 37.8672 50.0278 36.2361 44.5 39.5C36.5833 44.1806 21.0417 99.256 31.1945 144.631C48.8751 110.145 73.4167 79.6033 102.75 55.4644ZM468.792 144.617C478.972 99.2422 463.417 50.1806 455.5 45.5C449.972 42.2361 427.319 37.8533 397.236 55.4505C426.597 79.6033 451.125 110.145 468.792 144.617ZM388.889 293.798C388.889 356.117 345.875 424.006 250 424.006C154.111 424.006 111.111 356.117 111.111 293.798C111.111 231.478 154.111 215.673 250 215.673C345.875 215.673 388.889 231.478 388.889 293.798Z" fill="#FF97AB"/>
<path d="M208.333 314.284C208.333 340.075 203.611 347.617 187.5 347.617C171.389 347.617 166.667 340.075 166.667 314.284C166.667 288.506 171.389 280.964 187.5 280.964C203.611 280.964 208.333 288.492 208.333 314.284ZM333.333 314.284C333.333 340.075 328.611 347.617 312.5 347.617C296.389 347.617 291.667 340.075 291.667 314.284C291.667 288.506 296.389 280.964 312.5 280.964C328.611 280.964 333.333 288.492 333.333 314.284Z" fill="#FF6481"/>
<path d="M97.2222 236.506C112.563 236.506 125 224.07 125 208.728C125 193.387 112.563 180.95 97.2222 180.95C81.881 180.95 69.4444 193.387 69.4444 208.728C69.4444 224.07 81.881 236.506 97.2222 236.506Z" fill="#111111"/>
<path d="M402.778 236.506C418.119 236.506 430.556 224.07 430.556 208.728C430.556 193.387 418.119 180.95 402.778 180.95C387.437 180.95 375 193.387 375 208.728C375 224.07 387.437 236.506 402.778 236.506Z" fill="#111111"/>
</svg>
